<?xml version="1.0" encoding="iso-8859-1"?>
<!-- Uploaded to: SVG Repo, www.svgrepo.com, Generator: SVG Repo Mixer Tools -->
<svg fill="#fe7301" height="200px" width="200px" version="1.1" id="Layer_1" xmlns="http://www.w3.org/2000/svg" xmlns:xlink="http://www.w3.org/1999/xlink" viewBox="-122.88 -122.88 757.76 757.76" xml:space="preserve" stroke="#fe7301" stroke-width="0.0051200099999999995" transform="matrix(1, 0, 0, 1, 0, 0)rotate(0)"><g id="SVGRepo_bgCarrier" stroke-width="0" transform="translate(0,0), scale(1)"><rect x="-122.88" y="-122.88" width="757.76" height="757.76" rx="378.88" fill="#ffffff" strokewidth="0"></rect></g><g id="SVGRepo_tracerCarrier" stroke-linecap="round" stroke-linejoin="round" stroke="#CCCCCC" stroke-width="1.0240019999999999"></g><g id="SVGRepo_iconCarrier"> <g> <g> <path d="M469.333,401.074c-8.107,0-15.625,2.398-22.084,6.34l-79.343-85.444l74.163-263.689l63.462-15.863 c4.574-1.143,7.356-5.777,6.212-10.351c-1.143-4.565-5.786-7.373-10.342-6.212l-68.267,17.067 c-2.978,0.742-5.316,3.021-6.153,5.973l-17.451,62.046H8.533c-2.569,0-5.001,1.161-6.613,3.149 c-1.621,1.988-2.261,4.608-1.732,7.125l42.667,204.8c0.811,3.959,4.301,6.792,8.346,6.792H354.68l39.62,42.667H59.733 c-3.806,0-7.159,2.526-8.209,6.187l-5.641,19.738c-1.084-0.077-2.116-0.324-3.217-0.324C19.14,401.074,0,420.215,0,443.741 c0,23.526,19.14,42.667,42.667,42.667c23.526,0,42.667-19.14,42.667-42.667c0-16.41-9.412-30.524-23.031-37.658l3.866-13.542 H409.6c0.162,0,0.299-0.085,0.461-0.094l24.653,26.547c-5.018,6.997-8.047,15.505-8.047,24.747 c0,23.526,19.14,42.667,42.667,42.667c23.526,0,42.667-19.14,42.667-42.667C512,420.215,492.86,401.074,469.333,401.074z M322.671,128.008h82.065l-9.6,34.133h-79.573L322.671,128.008z M390.34,179.208l-9.6,34.133h-75.844l7.108-34.133H390.34z M213.333,128.008h91.913l-7.108,34.133h-60.382c-7.663-4.224-15.949-6.844-24.422-7.902V128.008z M294.571,179.208l-7.108,34.133 h-15.027c-1.528-12.194-6.289-24.055-14.37-34.133H294.571z M196.267,128.008v26.231c-8.465,1.058-16.759,3.686-24.422,7.902 h-60.382l-7.108-34.133H196.267z M151.535,179.208c-8.09,10.078-12.851,21.939-14.37,34.133h-15.027l-7.108-34.133H151.535z M19.029,128.008h67.9l7.108,34.133h-67.9L19.029,128.008z M29.696,179.208h67.908l7.108,34.133H36.804L29.696,179.208z M40.363,230.408h67.9l7.108,34.133h-67.9L40.363,230.408z M58.138,315.741l-7.108-34.133h67.9l7.108,34.133H58.138z M125.688,230.408h11.469c1.528,12.194,6.289,24.055,14.37,34.133h-18.731L125.688,230.408z M196.267,315.741h-52.796 l-7.108-34.133h34.304v-0.7c7.987,4.617,16.691,7.484,25.6,8.602V315.741z M168.593,258.081 c-19.959-19.959-19.959-52.446,0-72.405c9.984-9.976,23.091-14.967,36.207-14.967c13.107,0,26.223,4.992,36.207,14.967 c19.959,19.959,19.959,52.446,0,72.405C221.039,278.024,188.561,278.041,168.593,258.081z M266.138,315.741h-52.804V289.51 c8.909-1.118,17.613-3.985,25.6-8.602v0.7h34.313L266.138,315.741z M258.074,264.541c8.081-10.078,12.843-21.939,14.37-34.133 h11.469l-7.108,34.133H258.074z M351.932,315.741h-68.378l7.108-34.133h70.869L351.932,315.741z M294.221,264.541l7.108-34.133 h74.598l-9.6,34.133H294.221z M68.267,443.741c0,14.114-11.486,25.6-25.6,25.6s-25.6-11.486-25.6-25.6 c0-13.568,10.633-24.585,23.987-25.438l-6.596,23.091c-1.289,4.531,1.331,9.25,5.871,10.547c0.785,0.222,1.57,0.333,2.347,0.333 c3.712,0,7.125-2.449,8.201-6.195l6.613-23.142C63.983,427.587,68.267,435.156,68.267,443.741z M469.333,469.341 c-14.114,0-25.6-11.486-25.6-25.6c0-4.275,1.152-8.243,3.012-11.785l16.341,17.596c1.673,1.809,3.959,2.722,6.246,2.722 c2.082,0,4.164-0.751,5.811-2.278c3.448-3.209,3.652-8.61,0.444-12.066l-16.41-17.664c3.115-1.357,6.545-2.125,10.155-2.125 c14.114,0,25.6,11.486,25.6,25.6S483.448,469.341,469.333,469.341z"></path> </g> </g> <g> <g> <path d="M228.932,213.341h-15.599v-15.607c0-4.71-3.814-8.533-8.533-8.533s-8.533,3.823-8.533,8.533v15.607h-15.599 c-4.719,0-8.533,3.823-8.533,8.533s3.814,8.533,8.533,8.533h15.599v15.607c0,4.71,3.814,8.533,8.533,8.533 s8.533-3.823,8.533-8.533v-15.607h15.599c4.719,0,8.533-3.823,8.533-8.533S233.651,213.341,228.932,213.341z"></path> </g> </g> </g></svg>